<?xml version="1.0" encoding="UTF-8" standalone="no"?>
<svg
   xmlns:dc="http://purl.org/dc/elements/1.1/"
   xmlns:cc="http://creativecommons.org/ns#"
   xmlns:rdf="http://www.w3.org/1999/02/22-rdf-syntax-ns#"
   xmlns:svg="http://www.w3.org/2000/svg"
   xmlns="http://www.w3.org/2000/svg"
   id="svg12"
   xml:space="preserve"
   viewBox="0 0 132 75"
   height="75"
   width="132"
   version="1.1"><metadata
     id="metadata16"><rdf:RDF><cc:Work
         rdf:about=""><dc:format>image/svg+xml</dc:format><dc:type
           rdf:resource="http://purl.org/dc/dcmitype/StillImage" /></cc:Work></rdf:RDF></metadata><desc
     id="desc2">Created with Fabric.js 2.4.6</desc><defs
     id="defs4" /><g
     id="g10"
     transform="translate(78.63,43.14)"><g
       id="text8"
       style="font-style:normal;font-weight:normal;font-size:96px;font-family:Lato;white-space:pre;opacity:1;fill:#ffffff;fill-rule:nonzero;stroke:none;stroke-width:1;stroke-linecap:butt;stroke-linejoin:miter;stroke-miterlimit:4;stroke-dasharray:none;stroke-dashoffset:0"
       aria-label="AG "><path
         id="path18"
         style="white-space:pre"
         d="m -30.817997,4.6239998 -10.8,-27.9839998 q -0.48,-1.248 -1.008,-2.88 -0.528,-1.68 -1.008,-3.552 -1.008,3.888 -2.064,6.48 l -10.8,27.9359998 z M -11.425997,30.16 h -7.2 q -1.248,0 -2.016,-0.624 -0.768,-0.624 -1.152,-1.584 l -6.432,-16.608 h -30.864 l -6.432,16.608 q -0.288,0.864 -1.104,1.536 -0.816,0.672 -2.016,0.672 h -7.2 l 27.504,-68.784 h 9.408 z" /><path
         id="path20"
         style="white-space:pre"
         d="M 51.901003,-2.9120002 V 23.488 q -5.184,3.744 -11.088,5.616 -5.856,1.824 -12.864,1.824 -8.304,0 -14.976,-2.544 -6.6720003,-2.592 -11.4240003,-7.2 -4.704,-4.656 -7.248,-11.136 -2.544,-6.4800002 -2.544,-14.2560002 0,-7.8719998 2.448,-14.3519998 2.496,-6.48 7.056,-11.088 4.56,-4.656 11.0880003,-7.2 6.528,-2.544 14.592,-2.544 4.08,0 7.584,0.624 3.504,0.576 6.48,1.728 2.976,1.104 5.52,2.736 2.544,1.584 4.752,3.6 l -2.64,4.224 q -0.624,0.96 -1.632,1.248 -0.96,0.24 -2.16,-0.48 -1.152,-0.672 -2.64,-1.632 -1.488,-0.96 -3.648,-1.824 -2.112,-0.912 -5.04,-1.536 -2.88,-0.624 -6.864,-0.624 -5.808,0 -10.512,1.92 -4.704,1.872 -8.0160003,5.424 -3.312,3.504 -5.088,8.544 -1.776,4.992 -1.776,11.2319998 0,6.48 1.824,11.616 1.872,5.0880002 5.28,8.6880002 3.4560003,3.552 8.3520003,5.424 4.896,1.872 10.992,1.872 4.8,0 8.496,-1.056 3.744,-1.104 7.296,-3.024 V 4.1919998 h -10.704 q -0.912,0 -1.488,-0.528 -0.528,-0.528 -0.528,-1.296 v -5.28 z" /></g></g></svg>